HIERARCHY
ROOT Hips
{
	OFFSET -0.001795 -0.223333 0.028219
	CHANNELS 6 Xposition Yposition Zposition Zrotation Yrotation Xrotation 
	JOINT LeftUpLeg
	{
		OFFSET 0.069520 -0.091406 -0.006815
		CHANNELS 3 Zrotation Yrotation Xrotation
		JOINT LeftLeg
		{
			OFFSET 0.034277 -0.375199 -0.004496
			CHANNELS 3 Zrotation Yrotation Xrotation
			JOINT LeftFoot
			{
				OFFSET -0.013596 -0.397961 -0.043693
				CHANNELS 3 Zrotation Yrotation Xrotation
				JOINT LeftToe
				{
					OFFSET 0.026358 -0.055791 0.119288
					CHANNELS 3 Zrotation Yrotation Xrotation
					End Site
					{
						OFFSET 0.000000 0.000000 0.000000
					}
				}
			}
		}
	}
	JOINT RightUpLeg
	{
		OFFSET -0.067670 -0.090522 -0.004320
		CHANNELS 3 Zrotation Yrotation Xrotation
		JOINT RightLeg
		{
			OFFSET -0.038290 -0.382569 -0.008850
			CHANNELS 3 Zrotation Yrotation Xrotation
			JOINT RightFoot
			{
				OFFSET 0.015774 -0.398415 -0.042312
				CHANNELS 3 Zrotation Yrotation Xrotation
				JOINT RightToe
				{
					OFFSET -0.025372 -0.048144 0.123348
					CHANNELS 3 Zrotation Yrotation Xrotation
					End Site
					{
						OFFSET 0.000000 0.000000 0.000000
					}
				}
			}
		}
	}
	JOINT Spine
	{
		OFFSET -0.002533 0.108963 -0.026696
		CHANNELS 3 Zrotation Yrotation Xrotation
		JOINT Spine1
		{
			OFFSET 0.005487 0.135180 0.001092
			CHANNELS 3 Zrotation Yrotation Xrotation
			JOINT Spine2
			{
				OFFSET 0.001457 0.052922 0.025425
				CHANNELS 3 Zrotation Yrotation Xrotation
				JOINT Neck
				{
					OFFSET -0.002778 0.213870 -0.042857
					CHANNELS 3 Zrotation Yrotation Xrotation
					JOINT Head
					{
						OFFSET 0.005152 0.064970 0.051349
						CHANNELS 3 Zrotation Yrotation Xrotation
						End Site
						{
							OFFSET 0.000000 0.000000 0.000000
						}
					}
				}
				JOINT LeftShoulder
				{
					OFFSET 0.078845 0.121749 -0.034090
					CHANNELS 3 Zrotation Yrotation Xrotation
					JOINT LeftArm
					{
						OFFSET 0.090977 0.030469 -0.008868
						CHANNELS 3 Zrotation Yrotation Xrotation
						JOINT LeftForeArm
						{
							OFFSET 0.259612 -0.012772 -0.027456
							CHANNELS 3 Zrotation Yrotation Xrotation
							JOINT LeftHand
							{
								OFFSET 0.249234 0.008986 -0.001171
								CHANNELS 3 Zrotation Yrotation Xrotation
								End Site
								{
									OFFSET 0.000000 0.000000 0.000000
								}
							}
						}
					}
				}
				JOINT RightShoulder
				{
					OFFSET -0.081759 0.118833 -0.038615
					CHANNELS 3 Zrotation Yrotation Xrotation
					JOINT RightArm
					{
						OFFSET -0.096012 0.032551 -0.009143
						CHANNELS 3 Zrotation Yrotation Xrotation
						JOINT RightForeArm
						{
							OFFSET -0.253742 -0.013329 -0.021401
							CHANNELS 3 Zrotation Yrotation Xrotation
							JOINT RightHand
							{
								OFFSET -0.255298 0.007772 -0.005559
								CHANNELS 3 Zrotation Yrotation Xrotation
								End Site
								{
									OFFSET 0.000000 0.000000 0.000000
								}
							}
						}
					}
				}
			}
		}
	}
}
MOTION
Frames: 5
Frame Time: 0.050000
0.505266 0.808492 3.395980 0.752917 2.813053 -1.122380 13.721434 0.287057 -22.589242 -5.717713 0.667404 66.900741 7.497900 14.943759 -4.142913 0.000000 0.000000 0.000000 -20.072512 -3.890400 -45.124234 -0.520577 2.278144 55.656420 -0.199566 -5.337046 12.449958 0.000000 0.000000 0.000000 -2.010889 -0.772129 26.054881 8.800819 -1.188887 -27.326429 -6.681896 -10.316570 37.026951 -4.044320 2.643738 -6.881115 0.000000 0.000000 0.000000 -9.714472 14.831953 -6.336692 -45.693974 -8.373067 -5.342927 -58.664317 -66.587269 51.032493 0.000000 0.000000 0.000000 -8.225658 -14.710198 -3.433187 43.386877 -16.300737 -12.719603 73.186813 49.088708 35.790352 0.000000 0.000000 0.000000 
0.502547 0.811163 3.394783 0.163263 2.971574 -0.878622 14.234216 0.426574 -25.944706 -6.075059 0.909686 69.894512 7.984682 16.130334 -3.246390 0.000000 0.000000 0.000000 -19.992345 -3.907098 -45.229850 -1.317785 2.807404 56.670947 -0.218956 -4.854864 10.838003 0.000000 0.000000 0.000000 -0.794383 -0.970098 23.911998 5.835430 -0.672813 -25.382193 -4.266348 -10.028798 34.659531 -4.733040 3.382172 -6.990721 0.000000 0.000000 0.000000 -7.941909 18.951991 -8.307728 -45.218265 -5.911347 -5.625524 -60.996180 -58.701962 45.606696 0.000000 0.000000 0.000000 -10.387256 -15.891455 -3.255220 48.018208 -17.962157 -14.777518 76.841175 48.818349 38.565149 0.000000 0.000000 0.000000 
0.500234 0.816969 3.395001 0.396009 2.153504 -1.021989 13.319496 0.339163 -27.319945 -6.265537 1.469136 70.250166 8.438378 17.145729 -2.611966 0.000000 0.000000 0.000000 -19.686441 -3.652814 -46.093847 -1.917106 3.507376 57.742656 -0.109429 -5.143241 12.213807 0.000000 0.000000 0.000000 -1.251934 -0.750488 22.084147 6.489645 -0.673336 -27.529395 -5.436839 -7.158461 37.497915 -4.025838 3.051149 -7.533303 0.000000 0.000000 0.000000 -6.397735 20.738716 -9.073995 -45.685951 -4.300336 -6.495010 -58.900042 -53.811724 39.791389 0.000000 0.000000 0.000000 -8.046121 -17.045360 -4.508394 48.928922 -15.644102 -14.121733 78.598939 49.471528 41.918953 0.000000 0.000000 0.000000 
0.498267 0.823167 3.394805 -0.129355 2.285927 -1.492488 13.259191 0.321944 -27.296409 -6.488964 1.554229 70.193885 9.108930 18.516161 -2.797170 0.000000 0.000000 0.000000 -18.445718 -3.099645 -45.046330 -2.420137 3.814306 57.845778 -0.260661 -4.629774 9.784288 0.000000 0.000000 0.000000 -0.558056 -0.880362 21.661889 5.033092 -0.271122 -28.896209 -3.831236 -7.184235 37.353507 -4.838819 3.780231 -8.200841 0.000000 0.000000 0.000000 -7.838663 23.044641 -10.482120 -45.434947 -2.620623 -6.965661 -60.106523 -48.255076 36.152080 0.000000 0.000000 0.000000 -8.591322 -18.395004 -4.825696 52.565076 -14.531227 -14.812600 76.498009 51.352933 42.919196 0.000000 0.000000 0.000000 
0.495951 0.826586 3.394562 -0.102041 1.261532 -1.046925 12.048442 0.133921 -26.062253 -5.464365 1.141755 67.607501 10.140831 20.635822 -4.253094 0.000000 0.000000 0.000000 -18.286795 -2.738154 -44.828296 -1.478744 3.402257 57.795819 -0.104224 -4.138752 9.107721 0.000000 0.000000 0.000000 -0.548509 -0.747233 19.513923 5.684308 -0.403538 -28.973785 -3.436017 -4.390273 34.631102 -4.156990 3.492133 -10.548294 0.000000 0.000000 0.000000 -6.064582 23.531075 -10.439845 -49.515920 -0.658484 -7.856039 -51.328669 -45.039659 27.881627 0.000000 0.000000 0.000000 -6.978036 -20.278951 -5.924240 54.933042 -15.027750 -15.143198 70.685475 54.908756 43.273074 0.000000 0.000000 0.000000 
